<?xml version="1.0" standalone="no"?>
<!DOCTYPE svg PUBLIC "-//W3C//DTD SVG 20010904//EN"
 "http://www.w3.org/TR/2001/REC-SVG-20010904/DTD/svg10.dtd">
<svg version="1.0" xmlns="http://www.w3.org/2000/svg"
 width="256.000000pt" height="256.000000pt" viewBox="0 0 256.000000 256.000000"
 preserveAspectRatio="xMidYMid meet">
<metadata>
Created by potrace 1.14, written by Peter Selinger 2001-2017
</metadata>
<g transform="translate(0.000000,256.000000) scale(0.100000,-0.100000)"
fill="#000000" stroke="none">
<path d="M1248 2455 c-2 -1 -37 -5 -78 -9 -67 -6 -95 -10 -179 -30 -153 -35
-345 -135 -476 -248 -134 -114 -256 -284 -320 -443 -28 -71 -33 -85 -58 -190
-72 -293 -7 -650 165 -903 113 -167 284 -319 455 -406 55 -27 76 -47 44 -41
-22 4 -56 -28 -46 -44 10 -17 23 -13 21 6 0 10 7 19 17 21 9 2 17 -1 17 -7 0
-6 -7 -7 -17 -4 -11 4 -14 3 -9 -6 4 -6 2 -18 -4 -26 -9 -11 -9 -15 -1 -15 6
0 14 7 18 15 5 14 8 13 19 -4 14 -20 22 -21 61 -7 15 5 20 13 17 24 -5 14 -4
15 5 2 6 -9 7 -18 1 -24 -13 -13 -13 -26 1 -26 5 0 7 5 4 10 -8 13 11 13 38
-1 l22 -12 -20 24 c-17 20 -17 21 -2 9 15 -11 20 -11 27 -1 5 9 10 10 14 2 4
-6 3 -11 -2 -11 -5 0 -9 -7 -9 -15 0 -9 5 -11 11 -7 19 14 60 12 86 -5 l25
-16 -20 23 -20 23 21 -11 c16 -8 24 -8 34 1 10 9 11 9 6 0 -8 -15 3 -17 23 -4
9 6 23 4 40 -7 14 -10 22 -12 18 -4 -5 6 -4 12 2 12 5 0 12 -6 14 -12 4 -10 6
-10 6 0 1 6 9 12 19 12 13 0 14 -2 3 -9 -8 -5 -9 -11 -3 -15 5 -3 12 1 16 9 3
8 10 15 16 15 6 0 8 -5 4 -11 -5 -8 -1 -8 14 0 26 14 54 15 33 2 -10 -7 -7 -9
12 -8 14 1 23 5 20 10 -8 14 15 7 27 -8 9 -11 16 -12 25 -5 7 6 17 10 21 8 16
-4 54 13 54 24 0 6 3 8 6 5 4 -4 1 -14 -7 -23 -13 -16 -12 -16 7 -6 12 6 24 8
28 5 3 -3 6 0 6 8 0 12 2 12 9 0 8 -12 12 -12 25 -2 9 8 16 9 16 4 0 -5 14 -9
30 -9 22 0 29 4 25 13 -3 9 0 11 6 7 6 -4 16 0 21 7 7 10 8 8 3 -8 -5 -17 -2
-22 14 -20 15 1 17 4 9 15 -8 9 -8 16 2 25 8 7 10 8 7 1 -4 -6 2 -19 12 -28
15 -13 18 -14 18 -1 0 8 -3 12 -7 10 -4 -2 -7 2 -7 10 0 9 5 11 16 6 20 -10
60 2 43 13 -7 4 -18 4 -24 0 -10 -5 -10 -4 -2 5 11 12 44 5 44 -10 0 -4 -12
-15 -26 -22 -17 -9 -23 -17 -15 -21 6 -4 11 -2 11 5 0 6 8 9 19 6 15 -4 18 -1
13 12 -5 13 -3 14 10 4 19 -16 28 -8 22 22 -5 28 6 38 26 23 12 -8 12 -9 -2
-4 -10 3 -18 1 -18 -4 0 -6 7 -10 15 -10 22 0 30 4 27 13 -1 4 7 7 17 7 11 0
23 5 26 10 4 7 -3 8 -22 4 -26 -7 -27 -6 -13 12 14 18 14 18 -5 3 -13 -11 -32
-15 -55 -13 -19 3 -44 5 -55 5 -12 0 5 13 40 30 152 77 309 204 409 334 26 33
50 65 55 71 51 64 139 270 167 390 47 206 35 446 -34 644 -150 428 -541 741
-982 785 -68 7 -159 12 -162 10z m-393 -2275 c3 -6 -1 -7 -9 -4 -18 7 -21 14
-7 14 6 0 13 -4 16 -10z m875 0 c0 -5 -5 -10 -11 -10 -5 0 -7 5 -4 10 3 6 8
10 11 10 2 0 4 -4 4 -10z m75 -40 c2 -12 1 -20 -2 -16 -4 4 -8 16 -10 28 -4
28 6 18 12 -12z m-968 -22 c-3 -8 -6 -5 -6 6 -1 11 2 17 5 13 3 -3 4 -12 1
-19z m33 8 c0 -3 -4 -8 -10 -11 -5 -3 -10 -1 -10 4 0 6 5 11 10 11 6 0 10 -2
10 -4z m735 -24 c-3 -3 -11 0 -18 7 -9 10 -8 11 6 5 10 -3 15 -9 12 -12z
m-200 -1 c3 -5 1 -12 -5 -16 -5 -3 -10 1 -10 9 0 18 6 21 15 7z m45 3 c0 -8
-19 -13 -24 -6 -3 5 1 9 9 9 8 0 15 -2 15 -3z"/>
<path d="M753 213 c4 -6 3 -14 -3 -18 -5 -3 -10 0 -10 7 0 7 -7 2 -16 -10 -8
-12 -20 -22 -27 -22 -8 0 -8 3 1 12 27 27 10 24 -19 -3 -18 -16 -29 -32 -25
-36 3 -3 6 -1 6 5 0 7 4 12 10 12 5 0 7 -8 4 -17 -5 -15 -4 -16 5 -3 10 15 55
24 45 9 -2 -4 -11 -6 -19 -3 -15 6 -15 -20 0 -33 4 -4 5 -3 2 3 -4 7 0 14 8
18 8 3 19 -3 24 -12 10 -16 10 -16 11 1 0 9 -5 17 -12 17 -6 0 1 13 16 28 25
27 26 30 9 43 -9 8 -14 9 -10 2z m4 -31 c-20 -22 -53 -27 -36 -5 6 7 15 11 19
8 5 -3 11 -1 15 5 3 5 9 10 12 10 3 0 -1 -8 -10 -18z"/>
<path d="M1786 198 c3 -5 10 -6 15 -3 13 9 11 12 -6 12 -8 0 -12 -4 -9 -9z"/>
<path d="M605 180 c-3 -6 1 -7 9 -4 18 7 21 14 7 14 -6 0 -13 -4 -16 -10z"/>
<path d="M636 173 c-6 -14 -5 -15 5 -6 7 7 10 15 7 18 -3 3 -9 -2 -12 -12z"/>
<path d="M1910 160 c-12 -16 -17 -30 -12 -30 5 0 15 11 22 25 7 13 18 22 23
18 6 -3 7 -1 3 5 -10 17 -12 16 -36 -18z"/>
<path d="M1957 155 c-4 -8 -3 -16 1 -19 4 -3 9 4 9 15 2 23 -3 25 -10 4z"/>
<path d="M630 141 c0 -6 4 -13 10 -16 6 -3 7 1 4 9 -7 18 -14 21 -14 7z"/>
<path d="M1830 130 c0 -5 5 -10 10 -10 6 0 10 5 10 10 0 6 -4 10 -10 10 -5 0
-10 -4 -10 -10z"/>
<path d="M1865 129 c-4 -6 -5 -12 -2 -15 2 -3 7 2 10 11 7 17 1 20 -8 4z"/>
<path d="M590 119 c0 -5 5 -7 10 -4 6 3 10 8 10 11 0 2 -4 4 -10 4 -5 0 -10
-5 -10 -11z"/>
<path d="M1145 91 c-3 -5 -2 -12 3 -15 5 -3 9 1 9 9 0 17 -3 19 -12 6z"/>
</g>
</svg>
